<svg width="21" height="21" viewBox="0 0 21 21" fill="none" xmlns="http://www.w3.org/2000/svg">
<path d="M6.68154 6.86071L13.9024 6.86071C14.1875 6.8603 14.4668 6.94063 14.7081 7.0924C14.9495 7.24416 15.1429 7.46117 15.266 7.7183C15.4101 8.02337 15.4656 8.3628 15.4261 8.69789C15.3867 9.03298 15.254 9.35025 15.043 9.61356L11.4326 13.9872C11.2909 14.1507 11.1157 14.2818 10.9189 14.3717C10.7221 14.4616 10.5083 14.5081 10.292 14.5081C10.0756 14.5081 9.86182 14.4616 9.66503 14.3717C9.46824 14.2818 9.29307 14.1507 9.15138 13.9872L5.54095 9.61356C5.32998 9.35025 5.19722 9.03298 5.15779 8.69789C5.11837 8.3628 5.17387 8.02337 5.31798 7.7183C5.44108 7.46117 5.63447 7.24416 5.87579 7.0924C6.1171 6.94063 6.39646 6.8603 6.68154 6.86071Z" fill="#F7FAF7"/>
</svg>
