<svg width="24" height="24" viewBox="0 0 24 24" fill="none" xmlns="http://www.w3.org/2000/svg">
<path d="M8.04926 8.24868L16.1184 8.24868C16.437 8.24822 16.7492 8.33798 17.0188 8.50758C17.2885 8.67718 17.5046 8.91968 17.6422 9.20701C17.8032 9.54793 17.8652 9.92723 17.8212 10.3017C17.7771 10.6761 17.6288 11.0307 17.393 11.3249L13.3584 16.2124C13.2001 16.3951 13.0043 16.5416 12.7844 16.642C12.5645 16.7425 12.3256 16.7944 12.0838 16.7944C11.8421 16.7944 11.6032 16.7425 11.3833 16.642C11.1633 16.5416 10.9676 16.3951 10.8093 16.2124L6.77467 11.3249C6.53892 11.0307 6.39056 10.6761 6.34651 10.3017C6.30245 9.92723 6.36448 9.54793 6.52551 9.20701C6.66307 8.91968 6.87919 8.67718 7.14885 8.50758C7.41852 8.33798 7.7307 8.24822 8.04926 8.24868Z" fill="#F7FAF7"/>
</svg>
