<svg width="36" height="36" viewBox="0 0 36 36" fill="none" xmlns="http://www.w3.org/2000/svg">
<path d="M24.0573 23.8333H11.7781C11.2934 23.834 10.8183 23.6974 10.408 23.4393C9.9976 23.1812 9.66872 22.8122 9.45939 22.3749C9.21434 21.8561 9.11996 21.2789 9.18699 20.7091C9.25403 20.1393 9.47979 19.5998 9.83855 19.152L15.9781 11.7145C16.2191 11.4365 16.517 11.2136 16.8516 11.0607C17.1863 10.9079 17.5498 10.8289 17.9177 10.8289C18.2856 10.8289 18.6492 10.9079 18.9838 11.0607C19.3185 11.2136 19.6164 11.4365 19.8573 11.7145L25.9969 19.152C26.3556 19.5998 26.5814 20.1393 26.6484 20.7091C26.7155 21.2789 26.6211 21.8561 26.3761 22.3749C26.1667 22.8122 25.8378 23.1812 25.4275 23.4393C25.0171 23.6974 24.5421 23.834 24.0573 23.8333Z" fill="#40B853"/>
</svg>
