<svg width="36" height="36" viewBox="0 0 36 36" fill="none" xmlns="http://www.w3.org/2000/svg">
<path d="M11.4818 12.1666L23.7609 12.1666C24.2457 12.1659 24.7208 12.3025 25.1311 12.5606C25.5415 12.8187 25.8703 13.1877 26.0797 13.6249C26.3247 14.1437 26.4191 14.7209 26.3521 15.2908C26.285 15.8606 26.0593 16.4001 25.7005 16.8479L19.5609 24.2854C19.32 24.5634 19.0221 24.7863 18.6875 24.9391C18.3528 25.0919 17.9892 25.171 17.6213 25.171C17.2535 25.171 16.8899 25.0919 16.5552 24.9391C16.2206 24.7863 15.9227 24.5634 15.6818 24.2854L9.54218 16.8479C9.18342 16.4001 8.95765 15.8606 8.89062 15.2908C8.82358 14.7209 8.91796 14.1437 9.16301 13.6249C9.37234 13.1877 9.70122 12.8187 10.1116 12.5606C10.5219 12.3025 10.997 12.1659 11.4818 12.1666Z" fill="#D31645"/>
</svg>
