<svg width="36" height="36" viewBox="0 0 36 36" fill="none" xmlns="http://www.w3.org/2000/svg">
<path d="M12.1175 12.1667L24.3967 12.1667C24.8814 12.166 25.3565 12.3026 25.7669 12.5607C26.1772 12.8188 26.5061 13.1878 26.7154 13.6251C26.9605 14.1439 27.0548 14.7211 26.9878 15.2909C26.9208 15.8607 26.695 16.4002 26.3363 16.848L20.1967 24.2855C19.9557 24.5635 19.6578 24.7864 19.3232 24.9393C18.9886 25.0921 18.625 25.1711 18.2571 25.1711C17.8892 25.1711 17.5256 25.0921 17.191 24.9393C16.8563 24.7864 16.5584 24.5635 16.3175 24.2855L10.1779 16.848C9.81916 16.4002 9.5934 15.8607 9.52636 15.2909C9.45932 14.7211 9.55371 14.1439 9.79875 13.6251C10.0081 13.1878 10.337 12.8188 10.7473 12.5607C11.1577 12.3026 11.6327 12.166 12.1175 12.1667Z" fill="#D31645"/>
</svg>
