<svg width="63" height="63" viewBox="0 0 63 63" fill="none" xmlns="http://www.w3.org/2000/svg">
<path d="M6.42634 32.9649C6.82769 39.1499 9.5122 44.9652 13.959 49.2827C18.4058 53.6002 24.2979 56.1119 30.492 56.3305C36.6861 56.5492 42.7406 54.4591 47.4807 50.4659C52.2209 46.4728 55.3087 40.8612 56.1452 34.7199L48.532 33.683C47.9527 37.9368 45.8138 41.8238 42.5305 44.5897C39.2472 47.3556 35.0534 48.8033 30.763 48.6519C26.4726 48.5004 22.3914 46.7607 19.3112 43.7701C16.2311 40.7796 14.3716 36.7515 14.0936 32.4674L6.42634 32.9649Z" fill="#29F349"/>
<path d="M25.8966 7.11886C22.4478 7.90089 19.2041 9.40572 16.3798 11.5339C13.5555 13.6622 11.2149 16.3654 9.51253 19.465C7.81013 22.5646 6.78472 25.9902 6.504 29.5154C6.22328 33.0406 6.69365 36.5853 7.88404 39.9153L15.1191 37.3289C14.2945 35.0223 13.9687 32.5671 14.1632 30.1253C14.3576 27.6835 15.0679 25.3108 16.2471 23.1638C17.4263 21.0168 19.0475 19.1444 21.0038 17.6702C22.9601 16.1961 25.2068 15.1537 27.5957 14.612L25.8966 7.11886Z" fill="#051AD2"/>
<path d="M42.4336 31.3379C36.5669 31.3379 37.5087 31.3379 31.4336 31.3379C25.3585 31.3379 31.4336 31.3379 20.4336 31.3379C20.4336 25.2628 25.3585 20.3379 31.4336 20.3379C37.5087 20.3379 42.4336 25.2628 42.4336 31.3379Z" fill="#051AD2"/>
<path d="M20.4336 30.6045C26.3003 30.6045 25.3585 30.6045 31.4336 30.6045C37.5087 30.6045 31.4336 30.6045 42.4336 30.6045C42.4336 36.6796 37.5087 41.6045 31.4336 41.6045C25.3585 41.6045 20.4336 36.6796 20.4336 30.6045Z" fill="#29F349"/>
</svg>
