<svg width="63" height="63" viewBox="0 0 63 63" fill="none" xmlns="http://www.w3.org/2000/svg">
<path d="M6.42634 32.8897C6.82769 39.0747 9.5122 44.89 13.959 49.2075C18.4058 53.525 24.2979 56.0367 30.492 56.2553C36.6861 56.474 42.7406 54.3839 47.4807 50.3908C52.2209 46.3976 55.3087 40.786 56.1452 34.6447L48.532 33.6078C47.9527 37.8616 45.8138 41.7486 42.5305 44.5145C39.2472 47.2804 35.0534 48.7281 30.763 48.5767C26.4726 48.4252 22.3914 46.6855 19.3112 43.6949C16.2311 40.7044 14.3716 36.6763 14.0936 32.3922L6.42634 32.8897Z" fill="#29F349"/>
<path d="M25.8966 7.04366C22.4478 7.8257 19.2041 9.33052 16.3798 11.4588C13.5555 13.587 11.2149 16.2902 9.51253 19.3898C7.81013 22.4895 6.78472 25.915 6.504 29.4402C6.22328 32.9654 6.69365 36.5101 7.88404 39.8401L15.1191 37.2537C14.2945 34.9471 13.9687 32.4919 14.1632 30.0501C14.3576 27.6083 15.0679 25.2356 16.2471 23.0886C17.4263 20.9416 19.0475 19.0692 21.0038 17.595C22.9601 16.1209 25.2068 15.0785 27.5957 14.5368L25.8966 7.04366Z" fill="#051AD2"/>
<path d="M42.4336 31.2626C36.5669 31.2626 37.5087 31.2626 31.4336 31.2626C25.3585 31.2626 31.4336 31.2626 20.4336 31.2626C20.4336 25.1875 25.3585 20.2626 31.4336 20.2626C37.5087 20.2626 42.4336 25.1875 42.4336 31.2626Z" fill="#051AD2"/>
<path d="M20.4336 30.5293C26.3003 30.5293 25.3585 30.5293 31.4336 30.5293C37.5087 30.5293 31.4336 30.5293 42.4336 30.5293C42.4336 36.6044 37.5087 41.5293 31.4336 41.5293C25.3585 41.5293 20.4336 36.6044 20.4336 30.5293Z" fill="#29F349"/>
</svg>
