<svg width="233" height="109" viewBox="0 0 233 109" fill="none" xmlns="http://www.w3.org/2000/svg">
<path d="M2 20.9087L8.7279 41.3804C9.04029 42.3309 9.42357 43.2567 9.87451 44.1499L26.5357 77.1507L31.8993 90.6151C32.6805 92.5761 33.7687 94.4003 35.1231 96.0194L42.2458 104.534C44.8336 107.627 49.3562 108.231 52.6644 105.924V105.924C53.97 105.013 55.5234 104.525 57.115 104.525H63.8152C66.839 104.525 69.8235 103.839 72.5441 102.52L83.0673 97.4151C88.1111 94.9684 91.8966 90.5171 93.5013 85.1458L95.4344 78.6757C95.7376 77.6606 96.1211 76.6713 96.5811 75.7169L106.028 56.1182C106.466 55.2096 106.972 54.3355 107.542 53.5033L113.85 44.2896C114.525 43.304 115.11 42.2599 115.598 41.1699L118.664 34.3305C119.399 32.69 120.352 31.156 121.497 29.7701L129.581 19.9865C132.485 16.4728 136.805 14.4384 141.363 14.4384V14.4384V14.4384C143.565 14.4384 145.383 16.1595 145.503 18.3582L145.687 21.7162C145.844 24.5842 147.585 27.1262 150.202 28.3099L154.875 30.4236C156.966 31.3693 159.234 31.8584 161.529 31.8584H162.231C168.623 31.8584 174.604 35.0057 178.224 40.2732L179.197 41.6902C179.708 42.4333 180.135 43.2303 180.471 44.0669L181.455 46.5167C182.729 49.6886 185.804 51.7671 189.222 51.7671V51.7671C191.463 51.7671 193.61 50.8689 195.183 49.2735L200.316 44.0666C201.142 43.2293 201.892 42.3209 202.558 41.3518L216.606 20.9087L220.859 14.4384L231 1" stroke="url(#paint0_linear_2342_46)" stroke-width="3"/>
<path d="M2 20.9087L8.7279 41.3804C9.04029 42.3309 9.42357 43.2567 9.87451 44.1499L26.5357 77.1507L31.8993 90.6151C32.6805 92.5761 33.7687 94.4003 35.1231 96.0194L42.2458 104.534C44.8336 107.627 49.3562 108.231 52.6644 105.924V105.924C53.97 105.013 55.5234 104.525 57.115 104.525H63.8152C66.839 104.525 69.8235 103.839 72.5441 102.52L83.0673 97.4151C88.1111 94.9684 91.8966 90.5171 93.5013 85.1458L95.4344 78.6757C95.7376 77.6606 96.1211 76.6713 96.5811 75.7169L106.028 56.1182C106.466 55.2096 106.972 54.3355 107.542 53.5033L113.85 44.2896C114.525 43.304 115.11 42.2599 115.598 41.1699L118.664 34.3305C119.399 32.69 120.352 31.156 121.497 29.7701L129.581 19.9865C132.485 16.4728 136.805 14.4384 141.363 14.4384V14.4384V14.4384C143.565 14.4384 145.383 16.1595 145.503 18.3582L145.687 21.7162C145.844 24.5842 147.585 27.1262 150.202 28.3099L154.875 30.4236C156.966 31.3693 159.234 31.8584 161.529 31.8584H162.231C168.623 31.8584 174.604 35.0057 178.224 40.2732L179.197 41.6902C179.708 42.4333 180.135 43.2303 180.471 44.0669L181.455 46.5167C182.729 49.6886 185.804 51.7671 189.222 51.7671V51.7671C191.463 51.7671 193.61 50.8689 195.183 49.2735L200.316 44.0666C201.142 43.2293 201.892 42.3209 202.558 41.3518L216.606 20.9087L220.859 14.4384L231 1" stroke="url(#paint1_linear_2342_46)" stroke-width="3"/>
<defs>
<linearGradient id="paint0_linear_2342_46" x1="139.4" y1="55.2511" x2="55.247" y2="66.9307" gradientUnits="userSpaceOnUse">
<stop stop-color="#215D95"/>
<stop offset="1" stop-color="#1B76CA" stop-opacity="0"/>
</linearGradient>
<linearGradient id="paint1_linear_2342_46" x1="2" y1="9.9589" x2="173.265" y2="57.1962" gradientUnits="userSpaceOnUse">
<stop stop-color="white"/>
<stop offset="1" stop-color="white" stop-opacity="0"/>
</linearGradient>
</defs>
</svg>
